<svg fill="#CFD8DC" width="800" height="800" viewBox="0 0 512 512" xmlns="http://www.w3.org/2000/svg"><path d="M475.357 413.24a69.9 69.9 0 0 0-39.884-57.44l-39.93-18.8 21.58-44.561a89.45 89.45 0 0 0 .003-77.969L359.799 96.068c-42.006-86.757-165.59-86.758-207.597-.001L94.87 214.475a89.45 89.45 0 0 0 .005 77.969L116.455 337l-39.929 18.8a69.9 69.9 0 0 0-39.883 57.439l-3.612 43.377a22.516 22.516 0 0 0 22.439 24.385h401.065a22.513 22.513 0 0 0 22.436-24.382ZM364 260.12a107.975 107.975 0 0 1-98.103 107.5v-26.495a9.897 9.897 0 0 0-19.793 0v26.496A107.975 107.975 0 0 1 148 260.12v-56.68a28.82 28.82 0 0 1 28.82-28.82h158.36A28.82 28.82 0 0 1 364 203.44Z"/><path d="M321.821 275.998a9.91 9.91 0 0 0-12.313 6.67 13.578 13.578 0 0 1-26.016 0 9.903 9.903 0 1 0-18.984 5.643 33.388 33.388 0 0 0 63.984 0 9.913 9.913 0 0 0-6.67-12.313m-81.001 0a9.89 9.89 0 0 0-12.313 6.67 13.578 13.578 0 0 1-26.016 0 9.903 9.903 0 1 0-18.984 5.643 33.388 33.388 0 0 0 63.984 0 9.913 9.913 0 0 0-6.67-12.313M319 227.438h-36a9.897 9.897 0 1 0 0 19.793h36a9.897 9.897 0 1 0 0-19.793m-126 19.793h36a9.897 9.897 0 1 0 0-19.793h-36a9.897 9.897 0 1 0 0 19.793"/></svg>